name Walk8.mot
datacolumns 19
datarows 17
range 1.85000000 1.93000000
endheader

                time	   L_ground_force_vx	   L_ground_force_vy	   L_ground_force_vz	   L_ground_force_px	   L_ground_force_py	   L_ground_force_pz	   R_ground_force_vx	   R_ground_force_vy	   R_ground_force_vz	   R_ground_force_px	   R_ground_force_py	   R_ground_force_pz	   L_ground_torque_x	   L_ground_torque_y	   L_ground_torque_z	   R_ground_torque_x	   R_ground_torque_y	   R_ground_torque_z	
          1.85000000	         -2.47113082	        513.96097247	         18.36931627	          0.44872730	          0.00000000	          0.21742761	          0.00409479	         -0.00245558	          0.00184033	         -0.00002319	          0.00000000	          0.00012652	          0.00000000	         -2.31701113	          0.00000000	          0.00000000	          0.00000635	          0.00000000	
          1.85500000	         -0.44826075	        511.53929323	         18.77792640	          0.45077244	          0.00000000	          0.21696719	         -0.00156546	         -0.01319268	          0.00100919	         -0.00001386	          0.00000000	          0.00008222	          0.00000000	         -2.35707062	          0.00000000	          0.00000000	          0.00001046	          0.00000000	
          1.86000000	          1.51070547	        510.78447107	         19.34747713	          0.45287886	          0.00000000	          0.21645962	         -0.00507146	         -0.01903479	          0.00039637	         -0.00000679	          0.00000000	          0.00004731	          0.00000000	         -2.38241869	          0.00000000	          0.00000000	          0.00001228	          0.00000000	
          1.86500000	          3.44465189	        511.69423459	         20.01998023	          0.45502946	          0.00000000	          0.21590846	         -0.00691870	         -0.02127580	         -0.00002796	         -0.00000171	          0.00000000	          0.00002119	          0.00000000	         -2.39373294	          0.00000000	          0.00000000	          0.00001247	          0.00000000	
          1.87000000	          5.38675426	        514.24943791	         20.73473722	          0.45720996	          0.00000000	          0.21532024	         -0.00755611	         -0.02103026	         -0.00029786	          0.00000168	          0.00000000	          0.00000276	          0.00000000	         -2.39280819	          0.00000000	          0.00000000	          0.00001160	          0.00000000	
          1.87500000	          7.35903558	        518.40472754	         21.43374852	          0.45941151	          0.00000000	          0.21470377	         -0.00736727	         -0.01920956	         -0.00044739	          0.00000372	          0.00000000	         -0.00000928	          0.00000000	         -2.38234815	          0.00000000	          0.00000000	          0.00001013	          0.00000000	
          1.88000000	          9.36812637	        524.08339866	         22.06637981	          0.46163226	          0.00000000	          0.21406785	         -0.00666351	         -0.01652274	         -0.00050790	          0.00000474	          0.00000000	         -0.00001627	          0.00000000	         -2.36557442	          0.00000000	          0.00000000	          0.00000839	          0.00000000	
          1.88500000	         11.40363824	        531.17563936	         22.59380416	          0.46387731	          0.00000000	          0.21342060	         -0.00568520	         -0.01349298	         -0.00050653	          0.00000501	          0.00000000	         -0.00001946	          0.00000000	         -2.34579022	          0.00000000	          0.00000000	          0.00000660	          0.00000000	
          1.89000000	         13.44018614	        539.53479513	         22.99077722	          0.46615948	          0.00000000	          0.21276897	         -0.00460820	         -0.01048293	         -0.00046559	          0.00000479	          0.00000000	         -0.00001997	          0.00000000	         -2.32591308	          0.00000000	          0.00000000	          0.00000494	          0.00000000	
          1.89500000	         15.44145217	        548.97746148	         23.24646647	          0.46849644	          0.00000000	          0.21211897	         -0.00355309	         -0.00772356	         -0.00040252	          0.00000427	          0.00000000	         -0.00001872	          0.00000000	         -2.30804503	          0.00000000	          0.00000000	          0.00000348	          0.00000000	
          1.90000000	         17.36540027	        559.29279057	         23.36553289	          0.47090598	          0.00000000	          0.21147691	         -0.00259546	         -0.00534320	         -0.00033023	          0.00000360	          0.00000000	         -0.00001643	          0.00000000	         -2.29329780	          0.00000000	          0.00000000	          0.00000227	          0.00000000	
          1.90500000	         19.17076543	        570.25486565	         23.36615268	          0.47340560	          0.00000000	          0.21084958	         -0.00177608	         -0.00339413	         -0.00025776	          0.00000289	          0.00000000	         -0.00001367	          0.00000000	         -2.28164313	          0.00000000	          0.00000000	          0.00000131	          0.00000000	
          1.91000000	         20.82236507	        581.63669545	         23.27718050	          0.47601284	          0.00000000	          0.21024308	         -0.00111016	         -0.00187580	         -0.00019090	          0.00000220	          0.00000000	         -0.00001081	          0.00000000	         -2.27152548	          0.00000000	          0.00000000	          0.00000060	          0.00000000	
          1.91500000	         22.29431092	        593.22514279	         23.13599625	          0.47874323	          0.00000000	          0.20966344	         -0.00059532	         -0.00075377	         -0.00013293	          0.00000158	          0.00000000	         -0.00000813	          0.00000000	         -2.26017207	          0.00000000	          0.00000000	          0.00000009	          0.00000000	
          1.92000000	         23.57256572	        604.82908548	         22.98426874	          0.48160929	          0.00000000	          0.20911438	         -0.00021808	          0.00002538	         -0.00008524	          0.00000107	          0.00000000	         -0.00000576	          0.00000000	         -2.24420194	          0.00000000	          0.00000000	         -0.00000024	          0.00000000	
          1.92500000	         24.65476388	        616.27910062	         22.86404745	          0.48461927	          0.00000000	          0.20859739	          0.00004108	          0.00052303	         -0.00004791	          0.00000065	          0.00000000	         -0.00000379	          0.00000000	         -2.21991832	          0.00000000	          0.00000000	         -0.00000044	          0.00000000	
          1.93000000	         25.54897250	        627.42915334	         22.81383824	          0.48777615	          0.00000000	          0.20811342	          0.00020403	          0.00080079	         -0.00002019	          0.00000033	          0.00000000	         -0.00000223	          0.00000000	         -2.18421353	          0.00000000	          0.00000000	         -0.00000053	          0.00000000	
